# xmcd CD database file
#
# Track frame offsets:
#	150
#	11245
#	21627
#	35679
#	45197
#	50625
#	53796
#	58135
#	65353
#	73789
#	80712
#	87760
#	95912
#	105910
#	115356
#	128901
#	136219
#	145345
#	152233
#	159770
#
# Disc length: 3933 seconds
#
# Revision: 0
# Processed by: cddbd v1.5.2PL0 Copyright (c) Steve Scherf et al.
# Submitted via: CDex 1.51
#
DISCID=1d0f5b14
DTITLE=Antonio Borghini and Mirko Sabatini - Acustica
DYEAR=2008
DGENRE=Jazz
TTITLE0=Miuna
TTITLE1=Etaceo
TTITLE2=Falzek
TTITLE3=Mirino
TTITLE4=Lembee
TTITLE5=Safran
TTITLE6=Gens
TTITLE7=Tagpot
TTITLE8=Midvas
TTITLE9=Geos
TTITLE10=Nozen
TTITLE11=Orme
TTITLE12=Diviade
TTITLE13=Fedoro
TTITLE14=Erita
TTITLE15=Manego
TTITLE16=Ardeon
TTITLE17=Macpot
TTITLE18=Laden
TTITLE19=24 32
EXTD=YEAR: 2008
EXTT0=
EXTT1=
EXTT2=
EXTT3=
EXTT4=
EXTT5=
EXTT6=
EXTT7=
EXTT8=
EXTT9=
EXTT10=
EXTT11=
EXTT12=
EXTT13=
EXTT14=
EXTT15=
EXTT16=
EXTT17=
EXTT18=
EXTT19=
PLAYORDER=
